solid Pi_Cam_Mount_Remix
facet normal 8.326672684688672e-17 0.0 -1.0
  outer loop
    vertex 86.6674564894684 145.4573277578341 -4.934941344458821e-14
    vertex 80.66745648946842 142.4573277578341 -5.005440506522518e-14
    vertex 80.66745648946842 145.4573277578341 -5.005440506522518e-14
  endloop
endfacet
facet normal 8.326672684688672e-17 0.0 -1.0
  outer loop
    vertex 80.66745648946842 142.4573277578341 -5.005440506522518e-14
    vertex 86.6674564894684 145.4573277578341 -4.934941344458821e-14
    vertex 86.6674564894684 142.4573277578341 -4.934941344458821e-14
  endloop
endfacet
facet normal 0.0 -1.0 0.0
  outer loop
    vertex 86.6674564894684 142.4573277578341 -4.934941344458821e-14
    vertex 80.66745648946842 142.4573277578341 6.0013113565074665
    vertex 80.66745648946842 142.4573277578341 -5.005440506522518e-14
  endloop
endfacet
facet normal 0.0 -1.0 0.0
  outer loop
    vertex 80.66745648946842 142.4573277578341 6.0013113565074665
    vertex 86.6674564894684 142.4573277578341 -4.934941344458821e-14
    vertex 86.66745648946842 142.4573277578341 6.0013113565074665
  endloop
endfacet
facet normal -0.00016104202271911372 -0.00011209504582737831 0.9999999807500838
  outer loop
    vertex 86.66745648150466 155.95273193461307 6.000692129517295
    vertex 80.6674564894684 158.95273191780038 6.000000026025861
    vertex 80.6674564894684 155.95273191780038 6.000000026025861
  endloop
endfacet
facet normal -0.00016104202271911372 -0.00011209504582737831 0.9999999807500838
  outer loop
    vertex 80.6674564894684 158.95273191780038 6.000000026025861
    vertex 86.66745648150466 155.95273193461307 6.000692129517295
    vertex 86.66745647503322 156.32464327556713 6.000768895364583
  endloop
endfacet
facet normal -0.00016104202271911372 -0.00011209504582737831 0.9999999807500838
  outer loop
    vertex 86.66745648946842 158.95273191780038 6.0013113565074665
    vertex 80.6674564894684 158.95273191780038 6.000000026025861
    vertex 86.66745647503322 156.32464327556713 6.000768895364583
  endloop
endfacet
facet normal 3.648514077895607e-09 -5.653540149089049e-26 -1.0
  outer loop
    vertex 89.66745648946842 155.95273191381898 1.0945492634473197e-08
    vertex 86.6674564894684 145.4573277578341 -4.934941344458821e-14
    vertex 86.6674564894684 155.95273191780038 -4.934941344458821e-14
  endloop
endfacet
facet normal 3.648514077895607e-09 -5.653540149089049e-26 -1.0
  outer loop
    vertex 86.6674564894684 145.4573277578341 -4.934941344458821e-14
    vertex 89.66745648946842 155.95273191381898 1.0945492634473197e-08
    vertex 89.66745648946842 145.4573277538527 1.0945492634473197e-08
  endloop
endfacet
facet normal -8.326672684688672e-17 0.0 1.0
  outer loop
    vertex 80.46745648946842 155.95273191780038 6.000000026025861
    vertex 77.76967901060121 156.72918905310794 6.000000026025861
    vertex 77.6674564894684 155.95273191780038 6.000000026025861
  endloop
endfacet
facet normal -8.326672684688672e-17 0.0 1.0
  outer loop
    vertex 77.76967901060121 156.72918905310794 6.000000026025861
    vertex 80.46745648946842 155.95273191780038 6.000000026025861
    vertex 78.06938027811509 157.45273191780038 6.000000026025861
  endloop
endfacet
facet normal -8.326672684688672e-17 0.0 1.0
  outer loop
    vertex 78.06938027811509 157.45273191780038 6.000000026025861
    vertex 80.46745648946842 155.95273191780038 6.000000026025861
    vertex 78.54613614590878 158.07405226136 6.000000026025861
  endloop
endfacet
facet normal -8.326672684688672e-17 0.0 1.0
  outer loop
    vertex 78.54613614590878 158.07405226136 6.000000026025861
    vertex 80.46745648946842 155.95273191780038 6.000000026025861
    vertex 79.1674564894684 158.55080812915367 6.000000026025861
  endloop
endfacet
facet normal -8.326672684688672e-17 0.0 1.0
  outer loop
    vertex 79.1674564894684 158.55080812915367 6.000000026025861
    vertex 80.46745648946842 155.95273191780038 6.000000026025861
    vertex 79.89099935416085 158.85050939666758 6.000000026025861
  endloop
endfacet
facet normal -8.326672684688672e-17 0.0 1.0
  outer loop
    vertex 79.89099935416085 158.85050939666758 6.000000026025861
    vertex 80.46745648946842 155.95273191780038 6.000000026025861
    vertex 80.6674564894684 158.95273191780038 6.000000026025861
  endloop
endfacet
facet normal -8.326672684688672e-17 0.0 1.0
  outer loop
    vertex 80.6674564894684 158.95273191780038 6.000000026025861
    vertex 80.46745648946842 155.95273191780038 6.000000026025861
    vertex 80.6674564894684 155.95273191780038 6.000000026025861
  endloop
endfacet
facet normal 0.00015816176823520267 0.00016804112845203312 0.9999999733735168
  outer loop
    vertex 77.76967901060121 144.68087062252653 6.0013113565074665
    vertex 80.46745648946842 145.4573277578341 6.000000026025861
    vertex 77.6674564894684 145.4573277578341 6.0013113565074665
  endloop
endfacet
facet normal 0.00015816176823520267 0.00016804112845203312 0.9999999733735168
  outer loop
    vertex 80.46745648946842 145.4573277578341 6.000000026025861
    vertex 77.76967901060121 144.68087062252653 6.0013113565074665
    vertex 78.06938027811509 143.9573277578341 6.0013113565074665
  endloop
endfacet
facet normal 0.00015816176823520267 0.00016804112845203312 0.9999999733735168
  outer loop
    vertex 80.46745648946842 145.4573277578341 6.000000026025861
    vertex 78.06938027811509 143.9573277578341 6.0013113565074665
    vertex 78.54613614590878 143.33600741427443 6.0013113565074665
  endloop
endfacet
facet normal 0.00015816176823520267 0.00016804112845203312 0.9999999733735168
  outer loop
    vertex 80.46745648946842 145.4573277578341 6.000000026025861
    vertex 78.54613614590878 143.33600741427443 6.0013113565074665
    vertex 79.1674564894684 142.85925154648078 6.0013113565074665
  endloop
endfacet
facet normal 0.00015816176823520267 0.00016804112845203312 0.9999999733735168
  outer loop
    vertex 80.46745648946842 145.4573277578341 6.000000026025861
    vertex 79.1674564894684 142.85925154648078 6.0013113565074665
    vertex 79.89099935416085 142.5595502789669 6.0013113565074665
  endloop
endfacet
facet normal 0.00015816176823520267 0.00016804112845203312 0.9999999733735168
  outer loop
    vertex 80.46745648946842 145.4573277578341 6.000000026025861
    vertex 79.89099935416085 142.5595502789669 6.0013113565074665
    vertex 80.66745648946842 142.4573277578341 6.0013113565074665
  endloop
endfacet
facet normal 0.00015816176823520267 0.00016804112845203312 0.9999999733735168
  outer loop
    vertex 80.46745648946842 145.4573277578341 6.000000026025861
    vertex 80.66745648946842 142.4573277578341 6.0013113565074665
    vertex 80.66745648946842 145.4573277578341 6.0013113565074665
  endloop
endfacet
facet normal -3.6483943087201254e-09 9.023564856071058e-05 0.999999995928764
  outer loop
    vertex 89.66745645364367 145.4573277538527 6.001639200069491
    vertex 86.66745648150466 155.95273193461307 6.000692129517295
    vertex 86.66745645364368 145.4573277578341 6.0016391891239484
  endloop
endfacet
facet normal -3.6483943087201254e-09 9.023564856071058e-05 0.999999995928764
  outer loop
    vertex 86.66745648150466 155.95273193461307 6.000692129517295
    vertex 89.66745645364367 145.4573277538527 6.001639200069491
    vertex 89.66745648150464 155.95273193063167 6.000692140462837
  endloop
endfacet
facet normal 1.0 -1.3271295318756634e-09 3.648515652797989e-09
  outer loop
    vertex 89.66745648946842 155.95273191381898 1.0945492634473197e-08
    vertex 89.66745645364367 145.4573277538527 6.001639200069491
    vertex 89.66745648946842 145.4573277538527 1.0945492634473197e-08
  endloop
endfacet
facet normal 1.0 -1.3271295318756634e-09 3.648515652797989e-09
  outer loop
    vertex 89.66745645364367 145.4573277538527 6.001639200069491
    vertex 89.66745648946842 155.95273191381898 1.0945492634473197e-08
    vertex 89.66745648150464 155.95273193063167 6.000692140462837
  endloop
endfacet
facet normal 1.400977240927051e-09 -1.0 1.4010580328891972e-09
  outer loop
    vertex 86.6674564894684 155.95273191780038 -4.934941344458821e-14
    vertex 80.6674564894684 155.95273191780038 6.000000026025861
    vertex 80.66745648946842 155.95273191780038 -5.005440506522518e-14
  endloop
endfacet
facet normal 1.400977240927051e-09 -1.0 1.4010580328891972e-09
  outer loop
    vertex 80.6674564894684 155.95273191780038 6.000000026025861
    vertex 86.6674564894684 155.95273191780038 -4.934941344458821e-14
    vertex 86.66745648150466 155.95273193461307 6.000692129517295
  endloop
endfacet
facet normal 3.6485143033849446e-09 6.249856796771424e-16 -1.0
  outer loop
    vertex 87.44391362541693 158.85050939649585 2.8328664192223126e-09
    vertex 86.6674564894684 155.95273191780038 -4.934941344458821e-14
    vertex 86.6674564894684 158.95273191780038 -4.934941344458821e-14
  endloop
endfacet
facet normal 3.6485143033849446e-09 6.249856796771424e-16 -1.0
  outer loop
    vertex 86.6674564894684 155.95273191780038 -4.934941344458821e-14
    vertex 87.44391362541693 158.85050939649585 2.8328664192223126e-09
    vertex 89.66745648946842 155.95273191381898 1.0945492634473197e-08
  endloop
endfacet
facet normal 3.6485143033849446e-09 6.249856796771424e-16 -1.0
  outer loop
    vertex 89.66745648946842 155.95273191381898 1.0945492634473197e-08
    vertex 87.44391362541693 158.85050939649585 2.8328664192223126e-09
    vertex 88.16745649061774 158.55080812849013 5.472727282462841e-09
  endloop
endfacet
facet normal 3.6485143033849446e-09 6.249856796771424e-16 -1.0
  outer loop
    vertex 89.66745648946842 155.95273191381898 1.0945492634473197e-08
    vertex 88.16745649061774 158.55080812849013 5.472727282462841e-09
    vertex 88.7887768344357 158.0740522599524 7.739619378721584e-09
  endloop
endfacet
facet normal 3.6485143033849446e-09 6.249856796771424e-16 -1.0
  outer loop
    vertex 89.66745648946842 155.95273191381898 1.0945492634473197e-08
    vertex 88.7887768344357 158.0740522599524 7.739619378721584e-09
    vertex 89.26553270214886 157.45273191550174 9.479064944084568e-09
  endloop
endfacet
facet normal 3.6485143033849446e-09 6.249856796771424e-16 -1.0
  outer loop
    vertex 89.66745648946842 155.95273191381898 1.0945492634473197e-08
    vertex 89.26553270214886 157.45273191550174 9.479064944084568e-09
    vertex 89.56523396919434 156.72918904990317 1.0572535147357341e-08
  endloop
endfacet
facet normal -1.0 1.3271295318756634e-09 -3.648515652797989e-09
  outer loop
    vertex 86.66745648150466 155.95273193461307 6.000692129517295
    vertex 86.6674564894684 145.4573277578341 -4.934941344458821e-14
    vertex 86.66745645364368 145.4573277578341 6.0016391891239484
  endloop
endfacet
facet normal -1.0 1.3271295318756634e-09 -3.648515652797989e-09
  outer loop
    vertex 86.6674564894684 145.4573277578341 -4.934941344458821e-14
    vertex 86.66745648150466 155.95273193461307 6.000692129517295
    vertex 86.6674564894684 155.95273191780038 -4.934941344458821e-14
  endloop
endfacet
facet normal 8.326672684688672e-17 0.0 -1.0
  outer loop
    vertex 86.6674564894684 158.95273191780038 -4.934941344458821e-14
    vertex 80.66745648946842 155.95273191780038 -5.005440506522518e-14
    vertex 80.66745648946842 158.95273191780038 -5.005440506522518e-14
  endloop
endfacet
facet normal 8.326672684688672e-17 0.0 -1.0
  outer loop
    vertex 80.66745648946842 155.95273191780038 -5.005440506522518e-14
    vertex 86.6674564894684 158.95273191780038 -4.934941344458821e-14
    vertex 86.6674564894684 155.95273191780038 -4.934941344458821e-14
  endloop
endfacet
facet normal 0.0 1.0 0.0
  outer loop
    vertex 80.6674564894684 158.95273191780038 6.000000026025861
    vertex 86.6674564894684 158.95273191780038 -4.934941344458821e-14
    vertex 80.66745648946842 158.95273191780038 -5.005440506522518e-14
  endloop
endfacet
facet normal 0.0 1.0 0.0
  outer loop
    vertex 86.6674564894684 158.95273191780038 -4.934941344458821e-14
    vertex 80.6674564894684 158.95273191780038 6.000000026025861
    vertex 86.66745648946842 158.95273191780038 6.0013113565074665
  endloop
endfacet
facet normal 3.648513994305348e-09 5.266847370076283e-16 -1.0
  outer loop
    vertex 89.66745648946842 145.4573277538527 1.0945492634473197e-08
    vertex 86.6674564894684 142.4573277578341 -4.934941344458821e-14
    vertex 86.6674564894684 145.4573277578341 -4.934941344458821e-14
  endloop
endfacet
facet normal 3.648513994305348e-09 5.266847370076283e-16 -1.0
  outer loop
    vertex 86.6674564894684 142.4573277578341 -4.934941344458821e-14
    vertex 89.66745648946842 145.4573277538527 1.0945492634473197e-08
    vertex 87.44391362413502 142.55955027879514 2.8328664192223126e-09
  endloop
endfacet
facet normal 3.648513994305348e-09 5.266847370076283e-16 -1.0
  outer loop
    vertex 87.44391362413502 142.55955027879514 2.8328664192223126e-09
    vertex 89.66745648946842 145.4573277538527 1.0945492634473197e-08
    vertex 88.16745648831909 142.85925154581722 5.472716002596911e-09
  endloop
endfacet
facet normal 3.648513994305348e-09 5.266847370076283e-16 -1.0
  outer loop
    vertex 88.16745648831909 142.85925154581722 5.472716002596911e-09
    vertex 89.66745648946842 145.4573277538527 1.0945492634473197e-08
    vertex 88.78877683162042 143.33600741286682 7.739619378721584e-09
  endloop
endfacet
facet normal 3.648513994305348e-09 5.266847370076283e-16 -1.0
  outer loop
    vertex 88.78877683162042 143.33600741286682 7.739619378721584e-09
    vertex 89.66745648946842 145.4573277538527 1.0945492634473197e-08
    vertex 89.2655326994946 143.95732775553543 9.479064944084568e-09
  endloop
endfacet
facet normal 3.648513994305348e-09 5.266847370076283e-16 -1.0
  outer loop
    vertex 89.2655326994946 143.95732775553543 9.479064944084568e-09
    vertex 89.66745648946842 145.4573277538527 1.0945492634473197e-08
    vertex 89.5652339674769 144.68087061932175 1.0572535147357341e-08
  endloop
endfacet
facet normal -2.7319384655908265e-05 -5.463876947476831e-05 0.9999999981341281
  outer loop
    vertex 86.66745648946842 142.4573277578341 6.0013113565074665
    vertex 80.66745648946842 145.4573277578341 6.0013113565074665
    vertex 80.66745648946842 142.4573277578341 6.0013113565074665
  endloop
endfacet
facet normal -2.7319384655908265e-05 -5.463876947476831e-05 0.9999999981341281
  outer loop
    vertex 80.66745648946842 145.4573277578341 6.0013113565074665
    vertex 86.66745648946842 142.4573277578341 6.0013113565074665
    vertex 86.66745645364368 145.4573277578341 6.0016391891239484
  endloop
endfacet
facet normal 0.0 1.0 0.0
  outer loop
    vertex 80.66745648946842 145.4573277578341 6.0013113565074665
    vertex 86.6674564894684 145.4573277578341 -4.934941344458821e-14
    vertex 80.66745648946842 145.4573277578341 -5.005440506522518e-14
  endloop
endfacet
facet normal 0.0 1.0 0.0
  outer loop
    vertex 86.6674564894684 145.4573277578341 -4.934941344458821e-14
    vertex 80.66745648946842 145.4573277578341 6.0013113565074665
    vertex 86.66745645364368 145.4573277578341 6.0016391891239484
  endloop
endfacet
facet normal 8.326672684688672e-17 0.0 -1.0
  outer loop
    vertex 77.76967901060121 156.72918905310794 -5.005440506522518e-14
    vertex 80.46745648946842 155.95273191780038 -5.005440506522518e-14
    vertex 77.6674564894684 155.95273191780038 -5.005440506522518e-14
  endloop
endfacet
facet normal 8.326672684688672e-17 0.0 -1.0
  outer loop
    vertex 80.46745648946842 155.95273191780038 -5.005440506522518e-14
    vertex 77.76967901060121 156.72918905310794 -5.005440506522518e-14
    vertex 78.06938027811509 157.45273191780038 -5.005440506522518e-14
  endloop
endfacet
facet normal 8.326672684688672e-17 0.0 -1.0
  outer loop
    vertex 80.46745648946842 155.95273191780038 -5.005440506522518e-14
    vertex 78.06938027811509 157.45273191780038 -5.005440506522518e-14
    vertex 78.54613614590878 158.07405226136 -5.005440506522518e-14
  endloop
endfacet
facet normal 8.326672684688672e-17 0.0 -1.0
  outer loop
    vertex 80.46745648946842 155.95273191780038 -5.005440506522518e-14
    vertex 78.54613614590878 158.07405226136 -5.005440506522518e-14
    vertex 79.16745648946842 158.55080812915367 -5.005440506522518e-14
  endloop
endfacet
facet normal 8.326672684688672e-17 0.0 -1.0
  outer loop
    vertex 80.46745648946842 155.95273191780038 -5.005440506522518e-14
    vertex 79.16745648946842 158.55080812915367 -5.005440506522518e-14
    vertex 79.89099935416085 158.85050939666758 -5.005440506522518e-14
  endloop
endfacet
facet normal 8.326672684688672e-17 0.0 -1.0
  outer loop
    vertex 80.46745648946842 155.95273191780038 -5.005440506522518e-14
    vertex 79.89099935416085 158.85050939666758 -5.005440506522518e-14
    vertex 80.66745648946842 158.95273191780038 -5.005440506522518e-14
  endloop
endfacet
facet normal 8.326672684688672e-17 0.0 -1.0
  outer loop
    vertex 80.46745648946842 155.95273191780038 -5.005440506522518e-14
    vertex 80.66745648946842 158.95273191780038 -5.005440506522518e-14
    vertex 80.66745648946842 155.95273191780038 -5.005440506522518e-14
  endloop
endfacet
facet normal -2.511042302205438e-09 -0.00010927867579152523 0.9999999940290856
  outer loop
    vertex 86.66745648946842 142.4573277578341 6.0013113565074665
    vertex 89.66745645364367 145.4573277538527 6.001639200069491
    vertex 86.66745645364368 145.4573277578341 6.0016391891239484
  endloop
endfacet
facet normal -2.511042302205438e-09 -0.00010927867579152523 0.9999999940290856
  outer loop
    vertex 89.66745645364367 145.4573277538527 6.001639200069491
    vertex 86.66745648946842 142.4573277578341 6.0013113565074665
    vertex 87.44391362342107 142.5595502576132 6.0013113572728845
  endloop
endfacet
facet normal -2.511042302205438e-09 -0.00010927867579152523 0.9999999940290856
  outer loop
    vertex 89.66745645364367 145.4573277538527 6.001639200069491
    vertex 87.44391362342107 142.5595502576132 6.0013113572728845
    vertex 88.16745648760514 142.85925152463528 6.001311359912735
  endloop
endfacet
facet normal -2.511042302205438e-09 -0.00010927867579152523 0.9999999940290856
  outer loop
    vertex 89.66745645364367 145.4573277538527 6.001639200069491
    vertex 88.16745648760514 142.85925152463528 6.001311359912735
    vertex 88.78877683090646 143.33600739168492 6.001311362179626
  endloop
endfacet
facet normal -2.511042302205438e-09 -0.00010927867579152523 0.9999999940290856
  outer loop
    vertex 89.66745645364367 145.4573277538527 6.001639200069491
    vertex 88.78877683090646 143.33600739168492 6.001311362179626
    vertex 89.26553269878065 143.95732773435353 6.001311363919072
  endloop
endfacet
facet normal -2.511042302205438e-09 -0.00010927867579152523 0.9999999940290856
  outer loop
    vertex 89.66745645364367 145.4573277538527 6.001639200069491
    vertex 89.26553269878065 143.95732773435353 6.001311363919072
    vertex 89.56523396676295 144.68087059813985 6.001311365012542
  endloop
endfacet
facet normal 0.13052619413864996 0.9914448611212222 2.3808868703946337e-10
  outer loop
    vertex 86.66745648946842 158.95273191780038 6.0013113565074665
    vertex 87.44391362541693 158.85050939649585 2.8328664192223126e-09
    vertex 86.6674564894684 158.95273191780038 -4.934941344458821e-14
  endloop
endfacet
facet normal 0.13052619413864996 0.9914448611212222 2.3808868703946337e-10
  outer loop
    vertex 87.44391362541693 158.85050939649585 2.8328664192223126e-09
    vertex 86.66745648946842 158.95273191780038 6.0013113565074665
    vertex 87.44391360352333 158.85050939649585 6.000692132350199
  endloop
endfacet
facet normal -0.9238795325112872 0.3826834323650889 -7.692842467304675e-17
  outer loop
    vertex 78.06938027811509 157.45273191780038 6.000000026025861
    vertex 77.76967901060121 156.72918905310794 -5.005440506522518e-14
    vertex 77.76967901060121 156.72918905310794 6.000000026025861
  endloop
endfacet
facet normal -0.9238795325112872 0.3826834323650889 -7.692842467304675e-17
  outer loop
    vertex 77.76967901060121 156.72918905310794 -5.005440506522518e-14
    vertex 78.06938027811509 157.45273191780038 6.000000026025861
    vertex 78.06938027811509 157.45273191780038 -5.005440506522518e-14
  endloop
endfacet
facet normal 0.9914448615326009 0.13052619101391866 3.6173002976674814e-09
  outer loop
    vertex 89.56523396919434 156.72918904990317 1.0572535147357341e-08
    vertex 89.66745648150464 155.95273193063167 6.000692140462837
    vertex 89.66745648946842 155.95273191381898 1.0945492634473197e-08
  endloop
endfacet
facet normal 0.9914448615326009 0.13052619101391866 3.6173002976674814e-09
  outer loop
    vertex 89.66745648150464 155.95273193063167 6.000692140462837
    vertex 89.56523396919434 156.72918904990317 1.0572535147357341e-08
    vertex 89.56523394730073 156.72918904990317 6.000692140089879
  endloop
endfacet
facet normal -0.130526192220059 0.9914448613738096 -4.1302144043411584e-17
  outer loop
    vertex 79.89099935416085 158.85050939666758 6.000000026025861
    vertex 80.66745648946842 158.95273191780038 -5.005440506522518e-14
    vertex 79.89099935416085 158.85050939666758 -5.005440506522518e-14
  endloop
endfacet
facet normal -0.130526192220059 0.9914448613738096 -4.1302144043411584e-17
  outer loop
    vertex 80.66745648946842 158.95273191780038 -5.005440506522518e-14
    vertex 79.89099935416085 158.85050939666758 6.000000026025861
    vertex 80.6674564894684 158.95273191780038 6.000000026025861
  endloop
endfacet
facet normal -0.6087614290087179 -0.7933533402912375 -5.068957162418933e-17
  outer loop
    vertex 79.1674564894684 142.85925154648078 6.0013113565074665
    vertex 78.54613614590878 143.33600741427443 -5.005440506522518e-14
    vertex 79.16745648946842 142.85925154648078 -5.005440506522518e-14
  endloop
endfacet
facet normal -0.6087614290087179 -0.7933533402912375 -5.068957162418933e-17
  outer loop
    vertex 78.54613614590878 143.33600741427443 -5.005440506522518e-14
    vertex 79.1674564894684 142.85925154648078 6.0013113565074665
    vertex 78.54613614590878 143.33600741427443 6.0013113565074665
  endloop
endfacet
facet normal -0.9238795325112872 -0.3826834323650889 -7.692842467304675e-17
  outer loop
    vertex 77.76967901060121 144.68087062252653 6.0013113565074665
    vertex 78.06938027811509 143.9573277578341 -5.005440506522518e-14
    vertex 78.06938027811509 143.9573277578341 6.0013113565074665
  endloop
endfacet
facet normal -0.9238795325112872 -0.3826834323650889 -7.692842467304675e-17
  outer loop
    vertex 78.06938027811509 143.9573277578341 -5.005440506522518e-14
    vertex 77.76967901060121 144.68087062252653 6.0013113565074665
    vertex 77.76967901060121 144.68087062252653 -5.005440506522518e-14
  endloop
endfacet
facet normal 8.326672684688672e-17 0.0 -1.0
  outer loop
    vertex 80.46745648946842 145.4573277578341 -5.005440506522518e-14
    vertex 77.76967901060121 144.68087062252653 -5.005440506522518e-14
    vertex 77.6674564894684 145.4573277578341 -5.005440506522518e-14
  endloop
endfacet
facet normal 8.326672684688672e-17 0.0 -1.0
  outer loop
    vertex 77.76967901060121 144.68087062252653 -5.005440506522518e-14
    vertex 80.46745648946842 145.4573277578341 -5.005440506522518e-14
    vertex 78.06938027811509 143.9573277578341 -5.005440506522518e-14
  endloop
endfacet
facet normal 8.326672684688672e-17 0.0 -1.0
  outer loop
    vertex 78.06938027811509 143.9573277578341 -5.005440506522518e-14
    vertex 80.46745648946842 145.4573277578341 -5.005440506522518e-14
    vertex 78.54613614590878 143.33600741427443 -5.005440506522518e-14
  endloop
endfacet
facet normal 8.326672684688672e-17 0.0 -1.0
  outer loop
    vertex 78.54613614590878 143.33600741427443 -5.005440506522518e-14
    vertex 80.46745648946842 145.4573277578341 -5.005440506522518e-14
    vertex 79.16745648946842 142.85925154648078 -5.005440506522518e-14
  endloop
endfacet
facet normal 8.326672684688672e-17 0.0 -1.0
  outer loop
    vertex 79.16745648946842 142.85925154648078 -5.005440506522518e-14
    vertex 80.46745648946842 145.4573277578341 -5.005440506522518e-14
    vertex 79.89099935416085 142.5595502789669 -5.005440506522518e-14
  endloop
endfacet
facet normal 8.326672684688672e-17 0.0 -1.0
  outer loop
    vertex 79.89099935416085 142.5595502789669 -5.005440506522518e-14
    vertex 80.46745648946842 145.4573277578341 -5.005440506522518e-14
    vertex 80.66745648946842 142.4573277578341 -5.005440506522518e-14
  endloop
endfacet
facet normal 8.326672684688672e-17 0.0 -1.0
  outer loop
    vertex 80.66745648946842 142.4573277578341 -5.005440506522518e-14
    vertex 80.46745648946842 145.4573277578341 -5.005440506522518e-14
    vertex 80.66745648946842 145.4573277578341 -5.005440506522518e-14
  endloop
endfacet
facet normal -0.7933533402912392 -0.6087614290087155 -6.605993587909578e-17
  outer loop
    vertex 78.06938027811509 143.9573277578341 6.0013113565074665
    vertex 78.54613614590878 143.33600741427443 -5.005440506522518e-14
    vertex 78.54613614590878 143.33600741427443 6.0013113565074665
  endloop
endfacet
facet normal -0.7933533402912392 -0.6087614290087155 -6.605993587909578e-17
  outer loop
    vertex 78.54613614590878 143.33600741427443 -5.005440506522518e-14
    vertex 78.06938027811509 143.9573277578341 6.0013113565074665
    vertex 78.06938027811509 143.9573277578341 -5.005440506522518e-14
  endloop
endfacet
facet normal 0.9238795328921915 0.3826834314455047 3.3707872980947095e-09
  outer loop
    vertex 89.26553270214886 157.45273191550174 9.479064944084568e-09
    vertex 89.56523394730073 156.72918904990317 6.000692140089879
    vertex 89.56523396919434 156.72918904990317 1.0572535147357341e-08
  endloop
endfacet
facet normal 0.9238795328921915 0.3826834314455047 3.3707872980947095e-09
  outer loop
    vertex 89.56523394730073 156.72918904990317 6.000692140089879
    vertex 89.26553270214886 157.45273191550174 9.479064944084568e-09
    vertex 89.26553268025525 157.45273191550174 6.000692138996409
  endloop
endfacet
facet normal -0.6087614290087133 0.7933533402912409 -5.0689571624188954e-17
  outer loop
    vertex 78.54613614590878 158.07405226136 6.000000026025861
    vertex 79.16745648946842 158.55080812915367 -5.005440506522518e-14
    vertex 78.54613614590878 158.07405226136 -5.005440506522518e-14
  endloop
endfacet
facet normal -0.6087614290087133 0.7933533402912409 -5.0689571624188954e-17
  outer loop
    vertex 79.16745648946842 158.55080812915367 -5.005440506522518e-14
    vertex 78.54613614590878 158.07405226136 6.000000026025861
    vertex 79.1674564894684 158.55080812915367 6.000000026025861
  endloop
endfacet
facet normal 0.38268343267162475 0.923879532384316 1.3962259237436326e-09
  outer loop
    vertex 87.44391360352333 158.85050939649585 6.000692132350199
    vertex 88.16745649061774 158.55080812849013 5.472727282462841e-09
    vertex 87.44391362541693 158.85050939649585 2.8328664192223126e-09
  endloop
endfacet
facet normal 0.38268343267162475 0.923879532384316 1.3962259237436326e-09
  outer loop
    vertex 88.16745649061774 158.55080812849013 5.472727282462841e-09
    vertex 87.44391360352333 158.85050939649585 6.000692132350199
    vertex 88.16745646872414 158.55080812849013 6.0006921349900715
  endloop
endfacet
facet normal 0.7933533407625093 0.6087614283945442 2.8945607142602097e-09
  outer loop
    vertex 88.7887768344357 158.0740522599524 7.739619378721584e-09
    vertex 89.26553268025525 157.45273191550174 6.000692138996409
    vertex 89.26553270214886 157.45273191550174 9.479064944084568e-09
  endloop
endfacet
facet normal 0.7933533407625093 0.6087614283945442 2.8945607142602097e-09
  outer loop
    vertex 89.26553268025525 157.45273191550174 6.000692138996409
    vertex 88.7887768344357 158.0740522599524 7.739619378721584e-09
    vertex 88.78877681254208 158.0740522599524 6.000692137256963
  endloop
endfacet
facet normal 8.326672684688672e-17 0.0 -1.0
  outer loop
    vertex 80.46745648946842 155.45273191780038 -5.005440506522518e-14
    vertex 77.6674564894684 155.95273191780038 -5.005440506522518e-14
    vertex 80.46745648946842 155.95273191780038 -5.005440506522518e-14
  endloop
endfacet
facet normal 6.651595136246943e-05 -5.902428196274669e-05 0.9999999960458812
  outer loop
    vertex 86.66745648150466 155.95273193461307 6.000692129517295
    vertex 86.66745648946842 158.95273191780038 6.0013113565074665
    vertex 86.66745647503322 156.32464327556713 6.000768895364583
  endloop
endfacet
facet normal 6.651595136246943e-05 -5.902428196274669e-05 0.9999999960458812
  outer loop
    vertex 86.66745648946842 158.95273191780038 6.0013113565074665
    vertex 86.66745648150466 155.95273193461307 6.000692129517295
    vertex 89.66745648150464 155.95273193063167 6.000692140462837
  endloop
endfacet
facet normal 6.651595136246943e-05 -5.902428196274669e-05 0.9999999960458812
  outer loop
    vertex 86.66745648946842 158.95273191780038 6.0013113565074665
    vertex 89.66745648150464 155.95273193063167 6.000692140462837
    vertex 87.44391360352333 158.85050939649585 6.000692132350199
  endloop
endfacet
facet normal 6.651595136246943e-05 -5.902428196274669e-05 0.9999999960458812
  outer loop
    vertex 87.44391360352333 158.85050939649585 6.000692132350199
    vertex 89.66745648150464 155.95273193063167 6.000692140462837
    vertex 88.16745646872414 158.55080812849013 6.0006921349900715
  endloop
endfacet
facet normal 6.651595136246943e-05 -5.902428196274669e-05 0.9999999960458812
  outer loop
    vertex 88.16745646872414 158.55080812849013 6.0006921349900715
    vertex 89.66745648150464 155.95273193063167 6.000692140462837
    vertex 88.78877681254208 158.0740522599524 6.000692137256963
  endloop
endfacet
facet normal 6.651595136246943e-05 -5.902428196274669e-05 0.9999999960458812
  outer loop
    vertex 88.78877681254208 158.0740522599524 6.000692137256963
    vertex 89.66745648150464 155.95273193063167 6.000692140462837
    vertex 89.26553268025525 157.45273191550174 6.000692138996409
  endloop
endfacet
facet normal 6.651595136246943e-05 -5.902428196274669e-05 0.9999999960458812
  outer loop
    vertex 89.26553268025525 157.45273191550174 6.000692138996409
    vertex 89.66745648150464 155.95273193063167 6.000692140462837
    vertex 89.56523394730073 156.72918904990317 6.000692140089879
  endloop
endfacet
facet normal -0.3826834323650882 -0.9238795325112876 -3.186479683157285e-17
  outer loop
    vertex 79.89099935416085 142.5595502789669 6.0013113565074665
    vertex 79.16745648946842 142.85925154648078 -5.005440506522518e-14
    vertex 79.89099935416085 142.5595502789669 -5.005440506522518e-14
  endloop
endfacet
facet normal -0.3826834323650882 -0.9238795325112876 -3.186479683157285e-17
  outer loop
    vertex 79.16745648946842 142.85925154648078 -5.005440506522518e-14
    vertex 79.89099935416085 142.5595502789669 6.0013113565074665
    vertex 79.1674564894684 142.85925154648078 6.0013113565074665
  endloop
endfacet
facet normal -0.13052619222005168 -0.9914448613738105 -1.0868488793951274e-17
  outer loop
    vertex 80.66745648946842 142.4573277578341 6.0013113565074665
    vertex 79.89099935416085 142.5595502789669 -5.005440506522518e-14
    vertex 80.66745648946842 142.4573277578341 -5.005440506522518e-14
  endloop
endfacet
facet normal -0.13052619222005168 -0.9914448613738105 -1.0868488793951274e-17
  outer loop
    vertex 79.89099935416085 142.5595502789669 -5.005440506522518e-14
    vertex 80.66745648946842 142.4573277578341 6.0013113565074665
    vertex 79.89099935416085 142.5595502789669 6.0013113565074665
  endloop
endfacet
facet normal 0.13052617887637438 -0.9914448631305387 -1.7419126721500984e-09
  outer loop
    vertex 87.44391362413502 142.55955027879514 2.8328664192223126e-09
    vertex 86.66745648946842 142.4573277578341 6.0013113565074665
    vertex 86.6674564894684 142.4573277578341 -4.934941344458821e-14
  endloop
endfacet
facet normal 0.13052617887637438 -0.9914448631305387 -1.7419126721500984e-09
  outer loop
    vertex 86.66745648946842 142.4573277578341 6.0013113565074665
    vertex 87.44391362413502 142.55955027879514 2.8328664192223126e-09
    vertex 87.44391362342107 142.5595502576132 6.0013113572728845
  endloop
endfacet
facet normal 0.38268343205856414 -0.923879532638254 -3.2153502307464214e-09
  outer loop
    vertex 88.16745648831909 142.85925154581722 5.472716002596911e-09
    vertex 87.44391362342107 142.5595502576132 6.0013113572728845
    vertex 87.44391362413502 142.55955027879514 2.8328664192223126e-09
  endloop
endfacet
facet normal 0.38268343205856414 -0.923879532638254 -3.2153502307464214e-09
  outer loop
    vertex 87.44391362342107 142.5595502576132 6.0013113572728845
    vertex 88.16745648831909 142.85925154581722 5.472716002596911e-09
    vertex 88.16745648760514 142.85925152463528 6.001311359912735
  endloop
endfacet
facet normal -0.9914448613738103 -0.13052619222005263 -8.255436845576253e-17
  outer loop
    vertex 77.6674564894684 145.4573277578341 6.0013113565074665
    vertex 77.76967901060121 144.68087062252653 -5.005440506522518e-14
    vertex 77.76967901060121 144.68087062252653 6.0013113565074665
  endloop
endfacet
facet normal -0.9914448613738103 -0.13052619222005263 -8.255436845576253e-17
  outer loop
    vertex 77.76967901060121 144.68087062252653 -5.005440506522518e-14
    vertex 77.6674564894684 145.4573277578341 6.0013113565074665
    vertex 77.6674564894684 145.4573277578341 -5.005440506522518e-14
  endloop
endfacet
facet normal -0.99144486137381 0.13052619222005438 -3.156473184989782e-16
  outer loop
    vertex 77.76967901060121 156.72918905310794 6.000000026025861
    vertex 77.6674564894684 155.95273191780038 -5.005440506522518e-14
    vertex 77.6674564894684 155.95273191780038 6.000000026025861
  endloop
endfacet
facet normal -0.99144486137381 0.13052619222005438 -3.156473184989782e-16
  outer loop
    vertex 77.6674564894684 155.95273191780038 -5.005440506522518e-14
    vertex 77.76967901060121 156.72918905310794 6.000000026025861
    vertex 77.76967901060121 156.72918905310794 -5.005440506522518e-14
  endloop
endfacet
facet normal 0.6087614294474195 0.7933533399546099 2.2210746009052407e-09
  outer loop
    vertex 88.16745646872414 158.55080812849013 6.0006921349900715
    vertex 88.7887768344357 158.0740522599524 7.739619378721584e-09
    vertex 88.16745649061774 158.55080812849013 5.472727282462841e-09
  endloop
endfacet
facet normal 0.6087614294474195 0.7933533399546099 2.2210746009052407e-09
  outer loop
    vertex 88.7887768344357 158.0740522599524 7.739619378721584e-09
    vertex 88.16745646872414 158.55080812849013 6.0006921349900715
    vertex 88.78877681254208 158.0740522599524 6.000692137256963
  endloop
endfacet
facet normal -0.7933533402912392 0.6087614290087155 -6.605993587909578e-17
  outer loop
    vertex 78.54613614590878 158.07405226136 6.000000026025861
    vertex 78.06938027811509 157.45273191780038 -5.005440506522518e-14
    vertex 78.06938027811509 157.45273191780038 6.000000026025861
  endloop
endfacet
facet normal -0.7933533402912392 0.6087614290087155 -6.605993587909578e-17
  outer loop
    vertex 78.06938027811509 157.45273191780038 -5.005440506522518e-14
    vertex 78.54613614590878 158.07405226136 6.000000026025861
    vertex 78.54613614590878 158.07405226136 -5.005440506522518e-14
  endloop
endfacet
facet normal 0.6087614285700191 -0.7933533406278628 -2.7277560273355007e-09
  outer loop
    vertex 88.78877683162042 143.33600741286682 7.739619378721584e-09
    vertex 88.16745648760514 142.85925152463528 6.001311359912735
    vertex 88.16745648831909 142.85925154581722 5.472716002596911e-09
  endloop
endfacet
facet normal 0.6087614285700191 -0.7933533406278628 -2.7277560273355007e-09
  outer loop
    vertex 88.16745648760514 142.85925152463528 6.001311359912735
    vertex 88.78877683162042 143.33600741286682 7.739619378721584e-09
    vertex 88.78877683090646 143.33600739168492 6.001311362179626
  endloop
endfacet
facet normal -0.38268343236509433 0.923879532511285 -3.1864796831573356e-17
  outer loop
    vertex 79.1674564894684 158.55080812915367 6.000000026025861
    vertex 79.89099935416085 158.85050939666758 -5.005440506522518e-14
    vertex 79.16745648946842 158.55080812915367 -5.005440506522518e-14
  endloop
endfacet
facet normal -0.38268343236509433 0.923879532511285 -3.1864796831573356e-17
  outer loop
    vertex 79.89099935416085 158.85050939666758 -5.005440506522518e-14
    vertex 79.1674564894684 158.55080812915367 6.000000026025861
    vertex 79.89099935416085 158.85050939666758 6.000000026025861
  endloop
endfacet
facet normal 1.0 0.0 8.326672684688672e-17
  outer loop
    vertex 80.46745648946842 155.95273191780038 -5.005440506522518e-14
    vertex 80.46745648946842 155.45273191780038 6.000000026025861
    vertex 80.46745648946842 155.45273191780038 -5.005440506522518e-14
  endloop
endfacet
facet normal 1.0 0.0 8.326672684688672e-17
  outer loop
    vertex 80.46745648946842 155.45273191780038 6.000000026025861
    vertex 80.46745648946842 155.95273191780038 -5.005440506522518e-14
    vertex 80.46745648946842 155.95273191780038 6.000000026025861
  endloop
endfacet
facet normal 0.0004683322634981216 0.0 0.9999998903324396
  outer loop
    vertex 80.46745648946842 145.9573277578341 6.000000026025861
    vertex 77.6674564894684 145.4573277578341 6.0013113565074665
    vertex 80.46745648946842 145.4573277578341 6.000000026025861
  endloop
endfacet
facet normal -8.326672684688672e-17 0.0 1.0
  outer loop
    vertex 80.46745648946842 155.95273191780038 6.000000026025861
    vertex 77.6674564894684 155.95273191780038 6.000000026025861
    vertex 80.46745648946842 155.45273191780038 6.000000026025861
  endloop
endfacet
facet normal -0.1757906384836571 -0.9844275755084823 -5.562508297104459e-17
  outer loop
    vertex 80.46745648946842 155.45273191780038 6.000000026025861
    vertex 77.6674564894684 155.95273191780038 -5.005440506522518e-14
    vertex 80.46745648946842 155.45273191780038 -5.005440506522518e-14
  endloop
endfacet
facet normal -0.1757906384836571 -0.9844275755084823 -5.562508297104459e-17
  outer loop
    vertex 77.6674564894684 155.95273191780038 -5.005440506522518e-14
    vertex 80.46745648946842 155.45273191780038 6.000000026025861
    vertex 77.6674564894684 155.95273191780038 6.000000026025861
  endloop
endfacet
facet normal -0.1757906384836572 0.9844275755084823 -1.13406091199114e-17
  outer loop
    vertex 77.6674564894684 145.4573277578341 6.0013113565074665
    vertex 80.46745648946842 145.9573277578341 -5.005440506522518e-14
    vertex 77.6674564894684 145.4573277578341 -5.005440506522518e-14
  endloop
endfacet
facet normal -0.1757906384836572 0.9844275755084823 -1.13406091199114e-17
  outer loop
    vertex 80.46745648946842 145.9573277578341 -5.005440506522518e-14
    vertex 77.6674564894684 145.4573277578341 6.0013113565074665
    vertex 80.46745648946842 145.9573277578341 6.000000026025861
  endloop
endfacet
facet normal 0.0 -1.0 0.0
  outer loop
    vertex 80.6674564894684 155.95273191780038 6.000000026025861
    vertex 80.46745648946842 155.95273191780038 -5.005440506522518e-14
    vertex 80.66745648946842 155.95273191780038 -5.005440506522518e-14
  endloop
endfacet
facet normal 0.0 -1.0 0.0
  outer loop
    vertex 80.46745648946842 155.95273191780038 -5.005440506522518e-14
    vertex 80.6674564894684 155.95273191780038 6.000000026025861
    vertex 80.46745648946842 155.95273191780038 6.000000026025861
  endloop
endfacet
facet normal 0.9238795321303832 -0.3826834332846723 -1.2407884012864126e-09
  outer loop
    vertex 89.2655326994946 143.95732775553543 9.479064944084568e-09
    vertex 89.56523396676295 144.68087059813985 6.001311365012542
    vertex 89.26553269878065 143.95732773435353 6.001311363919072
  endloop
endfacet
facet normal 0.9238795321303832 -0.3826834332846723 -1.2407884012864126e-09
  outer loop
    vertex 89.56523396676295 144.68087059813985 6.001311365012542
    vertex 89.2655326994946 143.95732775553543 9.479064944084568e-09
    vertex 89.5652339674769 144.68087061932175 1.0572535147357341e-08
  endloop
endfacet
facet normal 1.0 0.0 8.326672684688672e-17
  outer loop
    vertex 80.46745648946842 145.9573277578341 -5.005440506522518e-14
    vertex 80.46745648946842 145.4573277578341 6.000000026025861
    vertex 80.46745648946842 145.4573277578341 -5.005440506522518e-14
  endloop
endfacet
facet normal 1.0 0.0 8.326672684688672e-17
  outer loop
    vertex 80.46745648946842 145.4573277578341 6.000000026025861
    vertex 80.46745648946842 145.9573277578341 -5.005440506522518e-14
    vertex 80.46745648946842 145.9573277578341 6.000000026025861
  endloop
endfacet
facet normal 0.7933533398199575 -0.608761429622902 -2.05426975880395e-09
  outer loop
    vertex 88.78877683162042 143.33600741286682 7.739619378721584e-09
    vertex 89.26553269878065 143.95732773435353 6.001311363919072
    vertex 88.78877683090646 143.33600739168492 6.001311362179626
  endloop
endfacet
facet normal 0.7933533398199575 -0.608761429622902 -2.05426975880395e-09
  outer loop
    vertex 89.26553269878065 143.95732773435353 6.001311363919072
    vertex 88.78877683162042 143.33600741286682 7.739619378721584e-09
    vertex 89.2655326994946 143.95732775553543 9.479064944084568e-09
  endloop
endfacet
facet normal 0.9914448643462105 -0.13052616964243074 2.787842483783937e-09
  outer loop
    vertex 89.5652339674769 144.68087061932175 1.0572535147357341e-08
    vertex 89.66745645364367 145.4573277538527 6.001639200069491
    vertex 89.56523396676295 144.68087059813985 6.001311365012542
  endloop
endfacet
facet normal 0.9914448643462105 -0.13052616964243074 2.787842483783937e-09
  outer loop
    vertex 89.66745645364367 145.4573277538527 6.001639200069491
    vertex 89.5652339674769 144.68087061932175 1.0572535147357341e-08
    vertex 89.66745648946842 145.4573277538527 1.0945492634473197e-08
  endloop
endfacet
facet normal 0.0 1.0 0.0
  outer loop
    vertex 80.46745648946842 145.4573277578341 6.000000026025861
    vertex 80.66745648946842 145.4573277578341 -5.005440506522518e-14
    vertex 80.46745648946842 145.4573277578341 -5.005440506522518e-14
  endloop
endfacet
facet normal 0.0 1.0 0.0
  outer loop
    vertex 80.66745648946842 145.4573277578341 -5.005440506522518e-14
    vertex 80.46745648946842 145.4573277578341 6.000000026025861
    vertex 80.66745648946842 145.4573277578341 6.0013113565074665
  endloop
endfacet
facet normal 8.326672684688672e-17 0.0 -1.0
  outer loop
    vertex 80.46745648946842 145.4573277578341 -5.005440506522518e-14
    vertex 77.6674564894684 145.4573277578341 -5.005440506522518e-14
    vertex 80.46745648946842 145.9573277578341 -5.005440506522518e-14
  endloop
endfacet
endsolid Pi_Cam_Mount_Remix
