solid STL file created by Vectorworks 2020 SP5 (Build 562257) (64-Bit)
 facet normal 1.00000000000000 0.00000000000000 -0.00000000000000
  outer loop
   vertex 201.09851834133931 -144.83425785956109 -17.54175952506387
   vertex 201.09851834133931 -144.83425785956109 -15.90175952506378
   vertex 201.09851834133931 -170.33266196937325 -15.90175952506389
  endloop
 endfacet
 facet normal 1.00000000000000 0.00000000000000 0.00000000000000
  outer loop
   vertex 201.09851834133931 -170.33266196937325 -15.90175952506389
   vertex 201.09851834133931 -170.33266196937325 -17.54175952506387
   vertex 201.09851834133931 -144.83425785956109 -17.54175952506387
  endloop
 endfacet
 facet normal 0.03253614973195 0.99947055932660 -0.00000000000000
  outer loop
   vertex 199.65984243695200 -144.59808379903558 -17.54175952506387
   vertex 199.65984243695200 -144.59808379903558 -15.90175952506378
   vertex 199.95251275088989 -144.60761120838998 -15.90175952506378
  endloop
 endfacet
 facet normal 0.09747067798801 0.99523839703488 -0.00000000000000
  outer loop
   vertex 199.95251275088989 -144.60761120838998 -17.54175952506387
   vertex 199.95251275088989 -144.60761120838998 -15.90175952506378
   vertex 200.24394378043365 -144.63615309355137 -15.90175952506378
  endloop
 endfacet
 facet normal 0.16199247599994 0.98679199313706 -0.00000000000000
  outer loop
   vertex 200.24394378043365 -144.63615309355137 -17.54175952506387
   vertex 200.24394378043365 -144.63615309355137 -15.90175952506378
   vertex 200.53290148882019 -144.68358859664255 -15.90175952506378
  endloop
 endfacet
 facet normal 0.22582833239816 0.97416711312088 -0.00000000000000
  outer loop
   vertex 200.53290148882019 -144.68358859664255 -17.54175952506387
   vertex 200.53290148882019 -144.68358859664255 -15.90175952506378
   vertex 200.81816231232776 -144.74971685657206 -15.90175952506378
  endloop
 endfacet
 facet normal 0.28870794036665 0.95741721583082 -0.00000000000000
  outer loop
   vertex 200.81816231232776 -144.74971685657206 -17.54175952506387
   vertex 200.81816231232776 -144.74971685657206 -15.90175952506378
   vertex 201.09851834133931 -144.83425785956109 -15.90175952506378
  endloop
 endfacet
 facet normal 0.28870794036665 0.95741721583082 0.00000000000000
  outer loop
   vertex 201.09851834133931 -144.83425785956109 -15.90175952506378
   vertex 201.09851834133931 -144.83425785956109 -17.54175952506387
   vertex 200.81816231232776 -144.74971685657206 -17.54175952506387
  endloop
 endfacet
 facet normal 0.22582833239816 0.97416711312088 0.00000000000000
  outer loop
   vertex 200.81816231232776 -144.74971685657206 -15.90175952506378
   vertex 200.81816231232776 -144.74971685657206 -17.54175952506387
   vertex 200.53290148882019 -144.68358859664255 -17.54175952506387
  endloop
 endfacet
 facet normal 0.16199247599994 0.98679199313706 0.00000000000000
  outer loop
   vertex 200.53290148882019 -144.68358859664255 -15.90175952506378
   vertex 200.53290148882019 -144.68358859664255 -17.54175952506387
   vertex 200.24394378043365 -144.63615309355137 -17.54175952506387
  endloop
 endfacet
 facet normal 0.09747067798801 0.99523839703488 0.00000000000000
  outer loop
   vertex 200.24394378043365 -144.63615309355137 -15.90175952506378
   vertex 200.24394378043365 -144.63615309355137 -17.54175952506387
   vertex 199.95251275088989 -144.60761120838998 -17.54175952506387
  endloop
 endfacet
 facet normal 0.03253614973195 0.99947055932660 0.00000000000000
  outer loop
   vertex 199.95251275088989 -144.60761120838998 -15.90175952506378
   vertex 199.95251275088989 -144.60761120838998 -17.54175952506387
   vertex 199.65984243695200 -144.59808379903558 -17.54175952506387
  endloop
 endfacet
 facet normal 0.00000000000000 0.00000000000000 -1.00000000000000
  outer loop
   vertex 198.42350827326840 -170.33266196937325 -17.54175952506387
   vertex 200.81816231232776 -144.74971685657206 -17.54175952506387
   vertex 201.09851834133931 -144.83425785956109 -17.54175952506387
  endloop
 endfacet
 facet normal 0.00000000000000 0.00000000000000 -1.00000000000000
  outer loop
   vertex 198.42350827326840 -170.33266196937325 -17.54175952506387
   vertex 200.24394378043365 -144.63615309355137 -17.54175952506387
   vertex 200.53290148882019 -144.68358859664255 -17.54175952506387
  endloop
 endfacet
 facet normal 0.00000000000000 -0.00000000000000 -1.00000000000000
  outer loop
   vertex 200.53290148882019 -144.68358859664255 -17.54175952506387
   vertex 200.81816231232776 -144.74971685657206 -17.54175952506387
   vertex 198.42350827326840 -170.33266196937325 -17.54175952506387
  endloop
 endfacet
 facet normal 0.00000000000000 0.00000000000000 -1.00000000000000
  outer loop
   vertex 198.42350827326840 -170.33266196937325 -17.54175952506387
   vertex 199.95251275088989 -144.60761120838998 -17.54175952506387
   vertex 200.24394378043365 -144.63615309355137 -17.54175952506387
  endloop
 endfacet
 facet normal 0.00000000000000 0.00000000000000 -1.00000000000000
  outer loop
   vertex 198.42350827326840 -170.33266196937325 -17.54175952506387
   vertex 199.65984243695200 -144.59808379903558 -17.54175952506387
   vertex 199.95251275088989 -144.60761120838998 -17.54175952506387
  endloop
 endfacet
 facet normal 0.00000000000000 0.00000000000000 -1.00000000000000
  outer loop
   vertex 198.42350827326840 -170.33266196937325 -17.54175952506387
   vertex 198.42350827326840 -144.59808379903561 -17.54175952506387
   vertex 199.65984243695200 -144.59808379903558 -17.54175952506387
  endloop
 endfacet
 facet normal 0.00000000000000 -0.00000000000000 -1.00000000000000
  outer loop
   vertex 201.09851834133931 -144.83425785956109 -17.54175952506387
   vertex 201.09851834133931 -170.33266196937325 -17.54175952506387
   vertex 198.42350827326840 -170.33266196937325 -17.54175952506387
  endloop
 endfacet
 facet normal -0.00000000000000 -1.00000000000000 0.00000000000000
  outer loop
   vertex 201.09851834133931 -170.33266196937325 -15.90175952506389
   vertex 198.42350827326840 -170.33266196937325 -15.90175952506389
   vertex 198.42350827326840 -170.33266196937325 -16.78566397842339
  endloop
 endfacet
 facet normal 0.00000000000000 -1.00000000000000 0.00000000000000
  outer loop
   vertex 198.42350827326840 -170.33266196937325 -16.78566397842339
   vertex 201.09851834133931 -170.33266196937325 -17.54175952506387
   vertex 201.09851834133931 -170.33266196937325 -15.90175952506389
  endloop
 endfacet
 facet normal 0.00000000000000 -1.00000000000000 0.00000000000000
  outer loop
   vertex 198.42350827326840 -170.33266196937325 -16.78566397842339
   vertex 198.42350827326840 -170.33266196937325 -17.54175952506387
   vertex 201.09851834133931 -170.33266196937325 -17.54175952506387
  endloop
 endfacet
 facet normal -1.00000000000000 0.00000000000000 0.00000000000000
  outer loop
   vertex 198.42350827326840 -170.33266196937325 -16.78566397842339
   vertex 198.42350827326840 -170.33266196937325 -15.90175952506389
   vertex 198.42350827326840 -165.18626921586105 -15.90175952506389
  endloop
 endfacet
 facet normal -1.00000000000000 0.00000000000000 -0.00000000000000
  outer loop
   vertex 198.42350827326840 -165.18626921586105 -15.90175952506389
   vertex 198.42350827326840 -165.18626921586105 -16.78566397842339
   vertex 198.42350827326840 -170.33266196937325 -16.78566397842339
  endloop
 endfacet
 facet normal -0.00000000000000 -1.00000000000000 0.00000000000000
  outer loop
   vertex 198.42350827326840 -165.18626921586105 -15.90175952506389
   vertex 175.25754527964568 -165.18626921586105 -15.90175952506389
   vertex 175.25754527964568 -165.18626921586105 -16.78566397842339
  endloop
 endfacet
 facet normal 0.00000000000000 -1.00000000000000 0.00000000000000
  outer loop
   vertex 175.25754527964568 -165.18626921586105 -16.78566397842339
   vertex 198.42350827326840 -165.18626921586105 -16.78566397842339
   vertex 198.42350827326840 -165.18626921586105 -15.90175952506389
  endloop
 endfacet
 facet normal 1.00000000000000 0.00000000000000 0.00000000000000
  outer loop
   vertex 175.25754527964568 -170.33266196937325 -16.78566397842339
   vertex 175.25754527964568 -165.18626921586105 -16.78566397842339
   vertex 175.25754527964568 -165.18626921586105 -15.90175952506389
  endloop
 endfacet
 facet normal 1.00000000000000 0.00000000000000 0.00000000000000
  outer loop
   vertex 175.25754527964568 -165.18626921586105 -15.90175952506389
   vertex 175.25754527964568 -170.33266196937325 -15.90175952506389
   vertex 175.25754527964568 -170.33266196937325 -16.78566397842339
  endloop
 endfacet
 facet normal 1.00000000000000 0.00000000000000 0.00000000000000
  outer loop
   vertex 198.42350827326840 -174.33266196778504 -16.78566397842339
   vertex 198.42350827326840 -174.33266196778504 -19.85869675105296
   vertex 198.42350827326840 -170.33266196937325 -17.54175952506387
  endloop
 endfacet
 facet normal 1.00000000000000 0.00000000000000 -0.00000000000000
  outer loop
   vertex 198.42350827326840 -144.59808379903561 -19.85869675105296
   vertex 198.42350827326840 -144.59808379903561 -17.54175952506387
   vertex 198.42350827326840 -170.33266196937325 -17.54175952506387
  endloop
 endfacet
 facet normal 1.00000000000000 0.00000000000000 0.00000000000000
  outer loop
   vertex 198.42350827326840 -170.33266196937325 -17.54175952506387
   vertex 198.42350827326840 -174.33266196778504 -19.85869675105296
   vertex 198.42350827326840 -144.59808379903561 -19.85869675105296
  endloop
 endfacet
 facet normal 1.00000000000000 0.00000000000000 -0.00000000000000
  outer loop
   vertex 198.42350827326840 -170.33266196937325 -17.54175952506387
   vertex 198.42350827326840 -170.33266196937325 -16.78566397842339
   vertex 198.42350827326840 -174.33266196778504 -16.78566397842339
  endloop
 endfacet
 facet normal 0.00000000000000 0.00000000000000 1.00000000000000
  outer loop
   vertex 175.25754527964568 -165.18626921586105 -16.78566397842339
   vertex 175.25754527964568 -170.33266196937325 -16.78566397842339
   vertex 198.42350827326840 -170.33266196937325 -16.78566397842339
  endloop
 endfacet
 facet normal 0.00000000000000 0.00000000000000 1.00000000000000
  outer loop
   vertex 175.25754527964568 -170.33266196937325 -16.78566397842339
   vertex 175.25754527964568 -174.33266196778507 -16.78566397842339
   vertex 198.42350827326840 -174.33266196778504 -16.78566397842339
  endloop
 endfacet
 facet normal 0.00000000000000 -0.00000000000000 1.00000000000000
  outer loop
   vertex 198.42350827326840 -174.33266196778504 -16.78566397842339
   vertex 198.42350827326840 -170.33266196937325 -16.78566397842339
   vertex 175.25754527964568 -170.33266196937325 -16.78566397842339
  endloop
 endfacet
 facet normal 0.00000000000000 -0.00000000000000 1.00000000000000
  outer loop
   vertex 198.42350827326840 -170.33266196937325 -16.78566397842339
   vertex 198.42350827326840 -165.18626921586105 -16.78566397842339
   vertex 175.25754527964568 -165.18626921586105 -16.78566397842339
  endloop
 endfacet
 facet normal 0.00000000000000 -1.00000000000000 0.00000000000000
  outer loop
   vertex 175.25754527964568 -174.33266196778504 -19.85869675105296
   vertex 198.42350827326840 -174.33266196778504 -19.85869675105296
   vertex 198.42350827326840 -174.33266196778504 -16.78566397842339
  endloop
 endfacet
 facet normal -0.00000000000000 -1.00000000000000 0.00000000000000
  outer loop
   vertex 198.42350827326840 -174.33266196778504 -16.78566397842339
   vertex 175.25754527964568 -174.33266196778504 -16.78566397842339
   vertex 175.25754527964568 -174.33266196778504 -19.85869675105296
  endloop
 endfacet
 facet normal 0.00000000000000 0.00000000000000 -1.00000000000000
  outer loop
   vertex 175.25754527964568 -174.33266196778504 -19.85869675105296
   vertex 175.25754527964568 -144.59808379903561 -19.85869675105296
   vertex 198.42350827326840 -144.59808379903561 -19.85869675105296
  endloop
 endfacet
 facet normal 0.00000000000000 -0.00000000000000 -1.00000000000000
  outer loop
   vertex 198.42350827326840 -144.59808379903561 -19.85869675105296
   vertex 198.42350827326840 -174.33266196778504 -19.85869675105296
   vertex 175.25754527964568 -174.33266196778504 -19.85869675105296
  endloop
 endfacet
 facet normal -1.00000000000000 0.00000000000000 0.00000000000000
  outer loop
   vertex 175.25754527964568 -144.59808379903561 -19.85869675105296
   vertex 175.25754527964568 -174.33266196778504 -19.85869675105296
   vertex 175.25754527964568 -170.33266196937325 -17.54175952506387
  endloop
 endfacet
 facet normal -1.00000000000000 0.00000000000000 0.00000000000000
  outer loop
   vertex 175.25754527964568 -174.33266196778507 -16.78566397842339
   vertex 175.25754527964568 -170.33266196937325 -16.78566397842339
   vertex 175.25754527964568 -170.33266196937325 -17.54175952506387
  endloop
 endfacet
 facet normal -1.00000000000000 -0.00000000000000 0.00000000000000
  outer loop
   vertex 175.25754527964568 -170.33266196937325 -17.54175952506387
   vertex 175.25754527964568 -174.33266196778504 -19.85869675105296
   vertex 175.25754527964568 -174.33266196778507 -16.78566397842339
  endloop
 endfacet
 facet normal -1.00000000000000 0.00000000000000 0.00000000000000
  outer loop
   vertex 175.25754527964568 -170.33266196937325 -17.54175952506387
   vertex 175.25754527964568 -144.59808379903561 -17.54175952506387
   vertex 175.25754527964568 -144.59808379903561 -19.85869675105296
  endloop
 endfacet
 facet normal 0.00000000000000 -1.00000000000000 0.00000000000000
  outer loop
   vertex 172.58253521157471 -170.33266196937325 -15.90175952506393
   vertex 172.58253521157474 -170.33266196937325 -17.54175952506387
   vertex 175.25754527964568 -170.33266196937325 -16.78566397842339
  endloop
 endfacet
 facet normal 0.00000000000000 -1.00000000000000 0.00000000000000
  outer loop
   vertex 172.58253521157474 -170.33266196937325 -17.54175952506387
   vertex 175.25754527964565 -170.33266196937325 -17.54175952506387
   vertex 175.25754527964568 -170.33266196937325 -16.78566397842339
  endloop
 endfacet
 facet normal 0.00000000000000 -1.00000000000000 0.00000000000000
  outer loop
   vertex 175.25754527964568 -170.33266196937325 -16.78566397842339
   vertex 175.25754527964568 -170.33266196937325 -15.90175952506389
   vertex 172.58253521157471 -170.33266196937325 -15.90175952506393
  endloop
 endfacet
 facet normal 0.00000000000000 0.00000000000000 -1.00000000000000
  outer loop
   vertex 172.58253521157474 -170.33266196937325 -17.54175952506387
   vertex 172.58253521157474 -144.59808379903558 -17.54175952506387
   vertex 175.25754527964565 -144.59808379903561 -17.54175952506387
  endloop
 endfacet
 facet normal 0.00000000000000 -0.00000000000000 -1.00000000000000
  outer loop
   vertex 175.25754527964565 -144.59808379903561 -17.54175952506387
   vertex 175.25754527964565 -170.33266196937325 -17.54175952506387
   vertex 172.58253521157474 -170.33266196937325 -17.54175952506387
  endloop
 endfacet
 facet normal -1.00000000000000 0.00000000000000 0.00000000000000
  outer loop
   vertex 172.58253521157474 -144.59808379903558 -17.54175952506387
   vertex 172.58253521157474 -170.33266196937325 -17.54175952506387
   vertex 172.58253521157474 -170.33266196937325 -15.90175952506393
  endloop
 endfacet
 facet normal -1.00000000000000 0.00000000000000 0.00000000000000
  outer loop
   vertex 172.58253521157474 -170.33266196937325 -15.90175952506393
   vertex 172.58253521157474 -144.59808379903558 -15.90175952506383
   vertex 172.58253521157474 -144.59808379903558 -17.54175952506387
  endloop
 endfacet
 facet normal -0.00000000000000 -0.00000000000000 1.00000000000000
  outer loop
   vertex 199.34052677646719 -147.57743028249681 -15.90175952506379
   vertex 200.81816231232776 -144.74971685657206 -15.90175952506378
   vertex 200.53290148882019 -144.68358859664255 -15.90175952506378
  endloop
 endfacet
 facet normal -0.00000000000000 -0.00000000000000 1.00000000000000
  outer loop
   vertex 199.34052677646719 -147.57743028249681 -15.90175952506379
   vertex 201.09851834133931 -144.83425785956109 -15.90175952506378
   vertex 200.81816231232776 -144.74971685657206 -15.90175952506378
  endloop
 endfacet
 facet normal -0.00000000000001 -0.00000000000000 1.00000000000000
  outer loop
   vertex 200.53290148882019 -144.68358859664255 -15.90175952506378
   vertex 200.24394378043365 -144.63615309355137 -15.90175952506378
   vertex 199.34052677646719 -147.57743028249681 -15.90175952506379
  endloop
 endfacet
 facet normal -0.00000000000000 -0.00000000000000 1.00000000000000
  outer loop
   vertex 200.24394378043365 -144.63615309355137 -15.90175952506378
   vertex 199.95251275088989 -144.60761120838998 -15.90175952506378
   vertex 199.34052677646719 -147.57743028249681 -15.90175952506379
  endloop
 endfacet
 facet normal -0.00000000000000 -0.00000000000000 1.00000000000000
  outer loop
   vertex 172.58253521157471 -144.59808379903558 -15.90175952506382
   vertex 175.25754527964568 -165.18626921586105 -15.90175952506391
   vertex 174.34052677644715 -147.57743028249681 -15.90175952506383
  endloop
 endfacet
 facet normal -0.00000000000000 -0.00000000000000 1.00000000000000
  outer loop
   vertex 174.34052677644715 -147.57743028249681 -15.90175952506383
   vertex 175.25754527964568 -165.18626921586105 -15.90175952506391
   vertex 198.42350827326840 -165.18626921586105 -15.90175952506387
  endloop
 endfacet
 facet normal 0.00000000000001 -0.00000000000000 1.00000000000000
  outer loop
   vertex 199.95251275088989 -144.60761120838998 -15.90175952506378
   vertex 199.65984243695203 -144.59808379903555 -15.90175952506378
   vertex 199.34052677646719 -147.57743028249681 -15.90175952506379
  endloop
 endfacet
 facet normal -0.00000000000000 -0.00000000000000 1.00000000000000
  outer loop
   vertex 198.42350827326840 -165.18626921586105 -15.90175952506387
   vertex 199.34052677646719 -147.57743028249681 -15.90175952506379
   vertex 174.34052677644715 -147.57743028249681 -15.90175952506383
  endloop
 endfacet
 facet normal 0.00000000000000 -0.00000000000000 1.00000000000000
  outer loop
   vertex 199.65984243695203 -144.59808379903555 -15.90175952506378
   vertex 199.34052677646719 -144.59808379903558 -15.90175952506378
   vertex 199.34052677646719 -147.57743028249681 -15.90175952506379
  endloop
 endfacet
 facet normal -0.00000000000000 -0.00000000000000 1.00000000000000
  outer loop
   vertex 201.09851834133931 -170.33266196937325 -15.90175952506389
   vertex 201.09851834133931 -144.83425785956109 -15.90175952506378
   vertex 198.42350827326840 -165.18626921586105 -15.90175952506387
  endloop
 endfacet
 facet normal 0.00000000000000 -0.00000000000000 1.00000000000000
  outer loop
   vertex 199.34052677646719 -147.57743028249681 -15.90175952506379
   vertex 198.42350827326840 -165.18626921586105 -15.90175952506387
   vertex 201.09851834133931 -144.83425785956109 -15.90175952506378
  endloop
 endfacet
 facet normal -0.00000000000000 -0.00000000000000 1.00000000000000
  outer loop
   vertex 174.34052677644715 -147.57743028249681 -15.90175952506383
   vertex 174.34052677644715 -144.59808379903558 -15.90175952506382
   vertex 172.58253521157471 -144.59808379903558 -15.90175952506382
  endloop
 endfacet
 facet normal -0.00000000000000 -0.00000000000000 1.00000000000000
  outer loop
   vertex 172.58253521157471 -170.33266196937325 -15.90175952506393
   vertex 175.25754527964568 -170.33266196937325 -15.90175952506393
   vertex 175.25754527964568 -165.18626921586105 -15.90175952506391
  endloop
 endfacet
 facet normal -0.00000000000000 -0.00000000000000 1.00000000000000
  outer loop
   vertex 175.25754527964568 -165.18626921586105 -15.90175952506391
   vertex 172.58253521157471 -144.59808379903558 -15.90175952506382
   vertex 172.58253521157471 -170.33266196937325 -15.90175952506393
  endloop
 endfacet
 facet normal -0.00000000000000 -0.00000000000000 1.00000000000000
  outer loop
   vertex 198.42350827326840 -165.18626921586105 -15.90175952506387
   vertex 198.42350827326840 -170.33266196937325 -15.90175952506389
   vertex 201.09851834133931 -170.33266196937325 -15.90175952506389
  endloop
 endfacet
 facet normal 0.00000000000000 1.00000000000000 0.00000000000000
  outer loop
   vertex 198.42350827326840 -144.59808379903558 -17.54175952506387
   vertex 175.25754527964565 -144.59808379903558 -17.54175952506387
   vertex 174.34052677644715 -144.59808379903558 -15.90175952506382
  endloop
 endfacet
 facet normal 0.00000000000000 1.00000000000000 0.00000000000000
  outer loop
   vertex 198.42350827326840 -144.59808379903558 -17.54175952506387
   vertex 198.42350827326840 -144.59808379903558 -19.85869675105296
   vertex 175.25754527964568 -144.59808379903558 -19.85869675105296
  endloop
 endfacet
 facet normal 0.00000000000000 1.00000000000000 -0.00000000000000
  outer loop
   vertex 175.25754527964568 -144.59808379903558 -19.85869675105296
   vertex 175.25754527964565 -144.59808379903558 -17.54175952506387
   vertex 198.42350827326840 -144.59808379903558 -17.54175952506387
  endloop
 endfacet
 facet normal -0.00000000000000 1.00000000000000 0.00000000000000
  outer loop
   vertex 174.34052677644715 -144.59808379903558 -12.39175952554757
   vertex 199.34052677646719 -144.59808379903558 -12.39175952554757
   vertex 199.34052677646719 -144.59808379903558 -15.90175952506378
  endloop
 endfacet
 facet normal 0.00000000000000 1.00000000000000 0.00000000000000
  outer loop
   vertex 199.34052677646719 -144.59808379903558 -15.90175952506378
   vertex 198.42350827326840 -144.59808379903558 -17.54175952506387
   vertex 174.34052677644715 -144.59808379903558 -12.39175952554757
  endloop
 endfacet
 facet normal 0.00000000000000 1.00000000000000 -0.00000000000000
  outer loop
   vertex 172.58253521157474 -144.59808379903558 -17.54175952506387
   vertex 172.58253521157471 -144.59808379903558 -15.90175952506383
   vertex 174.34052677644715 -144.59808379903558 -15.90175952506382
  endloop
 endfacet
 facet normal 0.00000000000000 1.00000000000000 0.00000000000000
  outer loop
   vertex 199.65984243695200 -144.59808379903558 -17.54175952506387
   vertex 198.42350827326840 -144.59808379903558 -17.54175952506387
   vertex 199.34052677646719 -144.59808379903558 -15.90175952506378
  endloop
 endfacet
 facet normal 0.00000000000000 1.00000000000000 0.00000000000000
  outer loop
   vertex 174.34052677644715 -144.59808379903558 -15.90175952506382
   vertex 175.25754527964565 -144.59808379903558 -17.54175952506387
   vertex 172.58253521157474 -144.59808379903558 -17.54175952506387
  endloop
 endfacet
 facet normal -0.00000000000000 1.00000000000000 0.00000000000000
  outer loop
   vertex 174.34052677644715 -144.59808379903558 -15.90175952506382
   vertex 174.34052677644715 -144.59808379903558 -12.39175952554757
   vertex 198.42350827326840 -144.59808379903558 -17.54175952506387
  endloop
 endfacet
 facet normal -0.00000000000000 1.00000000000000 0.00000000000000
  outer loop
   vertex 199.34052677646719 -144.59808379903558 -15.90175952506378
   vertex 199.65984243695200 -144.59808379903558 -15.90175952506378
   vertex 199.65984243695200 -144.59808379903558 -17.54175952506387
  endloop
 endfacet
 facet normal -1.00000000000000 0.00000000000000 0.00000000000000
  outer loop
   vertex 174.34052677644718 -147.57743028249681 -12.39175952554757
   vertex 174.34052677644718 -144.59808379903558 -12.39175952554757
   vertex 174.34052677644718 -144.59808379903558 -15.90175952506382
  endloop
 endfacet
 facet normal -1.00000000000000 -0.00000000000000 0.00000000000000
  outer loop
   vertex 174.34052677644718 -144.59808379903558 -15.90175952506382
   vertex 174.34052677644718 -147.57743028249681 -15.90175952506383
   vertex 174.34052677644718 -147.57743028249681 -12.39175952554757
  endloop
 endfacet
 facet normal 1.00000000000000 0.00000000000000 0.00000000000000
  outer loop
   vertex 199.34052677646716 -147.57743028249681 -12.39175952554757
   vertex 199.34052677646716 -147.57743028249681 -15.90175952506379
   vertex 199.34052677646716 -144.59808379903558 -15.90175952506378
  endloop
 endfacet
 facet normal 1.00000000000000 0.00000000000000 -0.00000000000000
  outer loop
   vertex 199.34052677646716 -144.59808379903558 -15.90175952506378
   vertex 199.34052677646716 -144.59808379903558 -12.39175952554757
   vertex 199.34052677646716 -147.57743028249681 -12.39175952554757
  endloop
 endfacet
 facet normal 0.00000000000000 -1.00000000000000 0.00000000000000
  outer loop
   vertex 174.34052677644715 -147.57743028249681 -12.39175952554757
   vertex 174.34052677644715 -147.57743028249681 -15.90175952506383
   vertex 199.34052677646719 -147.57743028249681 -15.90175952506379
  endloop
 endfacet
 facet normal 0.00000000000000 -1.00000000000000 0.00000000000000
  outer loop
   vertex 199.34052677646719 -147.57743028249681 -15.90175952506379
   vertex 199.34052677646719 -147.57743028249681 -12.39175952554757
   vertex 174.34052677644715 -147.57743028249681 -12.39175952554757
  endloop
 endfacet
 facet normal 0.00000000000000 -0.00000000000000 1.00000000000000
  outer loop
   vertex 199.34052677646719 -147.57743028249681 -12.39175952554757
   vertex 199.34052677646719 -144.59808379903558 -12.39175952554757
   vertex 174.34052677644715 -144.59808379903558 -12.39175952554757
  endloop
 endfacet
 facet normal 0.00000000000000 0.00000000000000 1.00000000000000
  outer loop
   vertex 174.34052677644715 -144.59808379903558 -12.39175952554757
   vertex 174.34052677644715 -147.57743028249681 -12.39175952554757
   vertex 199.34052677646719 -147.57743028249681 -12.39175952554757
  endloop
 endfacet
endsolid STL file created by Vectorworks 2020 SP5 (Build 562257) (64-Bit)
