<?xml version="1.0" encoding="UTF-8" standalone="no"?>
<!DOCTYPE svg PUBLIC "-//W3C//DTD SVG 20010904//EN"
              "http://www.w3.org/TR/2001/REC-SVG-20010904/DTD/svg10.dtd">

<svg xmlns="http://www.w3.org/2000/svg"
     width="12.5in" height="12.4861in"
     viewBox="0 0 900 899">
  <path id="Selection"
        fill="none" stroke="black" stroke-width="1"
        d="M 114.00,228.00
           C 116.77,220.75 124.33,211.34 129.13,205.00
             141.31,188.91 154.75,174.25 169.00,160.00
             235.76,93.24 333.63,50.33 428.00,46.00
             428.00,46.00 428.00,68.00 428.00,68.00
             408.51,68.00 389.07,71.60 370.00,75.45
             370.00,75.45 354.00,79.00 354.00,79.00
             354.00,79.00 365.00,123.00 365.00,123.00
             325.19,133.58 287.50,151.38 254.00,175.43
             254.00,175.43 229.00,195.17 229.00,195.17
             229.00,195.17 211.00,211.00 211.00,211.00
             211.00,211.00 179.00,180.00 179.00,180.00
             179.00,180.00 167.28,193.00 167.28,193.00
             167.28,193.00 144.37,221.00 144.37,221.00
             142.07,224.08 134.77,235.68 131.83,236.59
             128.56,237.60 117.10,230.02 114.00,228.00 Z
           M 474.00,46.00
           C 474.00,46.00 484.00,46.91 484.00,46.91
             503.58,48.34 521.84,51.32 541.00,55.58
             612.07,71.36 676.08,106.06 729.00,155.91
             748.30,174.10 776.10,205.02 789.00,228.00
             785.52,229.68 773.85,237.36 771.09,236.99
             767.92,236.56 760.75,225.00 758.42,222.00
             744.92,204.56 737.80,195.80 722.00,180.00
             722.00,180.00 711.88,190.51 711.88,190.51
             711.88,190.51 690.00,211.00 690.00,211.00
             659.26,180.29 629.79,160.99 591.00,142.26
             582.87,138.33 563.56,130.61 555.00,128.14
             552.04,127.29 540.46,124.38 539.03,122.30
             537.43,119.97 539.96,112.69 540.71,110.00
             540.71,110.00 549.00,79.00 549.00,79.00
             549.00,79.00 527.00,74.45 527.00,74.45
             527.00,74.45 505.00,70.59 505.00,70.59
             505.00,70.59 474.00,67.00 474.00,67.00
             474.00,67.00 474.00,46.00 474.00,46.00 Z
           M 427.00,317.00
           C 427.00,317.00 414.20,249.00 414.20,249.00
             414.20,249.00 408.59,221.00 408.59,221.00
             408.59,221.00 404.12,198.00 404.12,198.00
             403.59,195.59 401.86,188.40 402.69,186.31
             403.55,184.14 406.03,184.07 408.00,183.73
             408.00,183.73 423.00,181.58 423.00,181.58
             423.00,181.58 435.00,180.91 435.00,180.91
             435.00,180.91 446.00,180.00 446.00,180.00
             446.00,180.00 481.00,181.92 481.00,181.92
             484.75,182.22 497.84,182.69 499.34,186.43
             499.94,187.92 498.62,195.04 498.30,197.09
             498.30,197.09 492.88,225.00 492.88,225.00
             492.88,225.00 483.39,275.00 483.39,275.00
             483.39,275.00 475.00,317.00 475.00,317.00
             495.09,319.83 514.64,329.33 531.00,341.00
             538.41,346.29 539.61,347.61 546.00,354.00
             547.46,355.46 551.50,360.01 553.42,360.27
             555.74,360.59 559.33,356.73 561.00,355.28
             561.00,355.28 580.00,338.87 580.00,338.87
             580.00,338.87 622.00,302.83 622.00,302.83
             622.00,302.83 656.00,274.00 656.00,274.00
             656.00,274.00 674.65,299.00 674.65,299.00
             687.72,318.60 697.53,337.63 705.00,360.00
             705.00,360.00 629.00,386.05 629.00,386.05
             629.00,386.05 596.00,397.33 596.00,397.33
             596.00,397.33 578.00,403.00 578.00,403.00
             580.00,415.97 584.97,422.79 585.00,441.00
             585.00,441.00 585.00,459.00 585.00,459.00
             584.92,465.42 582.71,476.63 581.11,483.00
             581.11,483.00 578.00,495.00 578.00,495.00
             578.00,495.00 612.00,506.14 612.00,506.14
             612.00,506.14 664.00,524.05 664.00,524.05
             664.00,524.05 705.00,538.00 705.00,538.00
             697.77,559.70 686.72,581.02 674.00,600.00
             669.57,606.62 660.82,619.15 655.00,624.00
             655.00,624.00 585.00,563.28 585.00,563.28
             585.00,563.28 564.99,546.00 564.99,546.00
             564.99,546.00 555.00,536.00 555.00,536.00
             555.00,536.00 532.00,556.50 532.00,556.50
             515.64,568.97 495.12,577.21 475.00,581.00
             475.00,581.00 494.00,679.00 494.00,679.00
             494.00,679.00 498.45,703.00 498.45,703.00
             498.94,705.47 500.58,710.23 498.96,712.40
             497.72,714.06 493.96,714.27 492.00,714.59
             492.00,714.59 475.00,716.91 475.00,716.91
             452.77,718.46 423.54,718.71 402.00,713.00
             402.00,713.00 411.20,664.00 411.20,664.00
             411.20,664.00 427.00,581.00 427.00,581.00
             404.89,577.88 379.82,565.12 363.00,550.70
             363.00,550.70 348.00,536.00 348.00,536.00
             343.72,541.19 328.02,554.05 322.00,559.28
             322.00,559.28 272.00,602.41 272.00,602.41
             272.00,602.41 253.91,618.01 253.91,618.01
             251.90,619.66 248.87,622.49 246.04,621.68
             242.28,620.60 233.14,606.74 230.37,603.00
             214.83,581.98 206.50,561.89 197.00,538.00
             197.00,538.00 233.00,525.74 233.00,525.74
             233.00,525.74 325.00,494.00 325.00,494.00
             316.14,473.78 315.16,448.51 318.75,427.00
             320.06,419.18 321.37,411.12 325.00,404.00
             325.00,404.00 295.00,393.34 295.00,393.34
             295.00,393.34 242.00,375.31 242.00,375.31
             242.00,375.31 197.00,360.00 197.00,360.00
             204.43,338.57 215.54,316.88 228.07,298.00
             228.07,298.00 246.00,274.00 246.00,274.00
             246.00,274.00 272.00,295.72 272.00,295.72
             272.00,295.72 320.00,337.13 320.00,337.13
             320.00,337.13 350.00,362.00 350.00,362.00
             353.11,355.42 360.42,349.56 366.00,344.92
             383.37,330.48 404.90,321.16 427.00,317.00 Z
           M 90.00,268.00
           C 90.00,268.00 109.00,278.00 109.00,278.00
             109.00,278.00 102.31,292.00 102.31,292.00
             96.37,304.96 84.72,335.52 82.00,349.00
             82.00,349.00 93.00,351.85 93.00,351.85
             93.00,351.85 125.00,360.00 125.00,360.00
             125.00,360.00 121.23,377.00 121.23,377.00
             121.23,377.00 117.43,397.00 117.43,397.00
             115.22,410.20 114.02,423.63 114.00,437.00
             114.00,437.00 113.01,454.00 113.01,454.00
             113.01,454.00 113.91,463.00 113.91,463.00
             113.91,463.00 119.26,511.00 119.26,511.00
             119.26,511.00 125.00,538.00 125.00,538.00
             125.00,538.00 82.00,549.00 82.00,549.00
             84.62,560.47 93.65,585.98 98.42,597.00
             98.42,597.00 109.00,620.00 109.00,620.00
             109.00,620.00 90.00,631.00 90.00,631.00
             74.12,594.14 65.35,576.42 56.42,536.00
             41.19,467.01 44.65,391.05 67.00,324.00
             73.32,305.03 80.11,285.45 90.00,268.00 Z
           M 793.00,278.00
           C 798.95,274.57 806.43,269.25 813.00,268.00
             825.39,296.80 834.85,316.91 842.63,348.00
             848.52,371.60 852.39,395.76 854.09,420.00
             854.09,420.00 855.00,432.00 855.00,432.00
             855.00,432.00 855.00,465.00 855.00,465.00
             855.00,465.00 853.96,476.00 853.96,476.00
             853.96,476.00 853.96,485.00 853.96,485.00
             849.09,534.74 835.05,586.59 812.00,631.00
             812.00,631.00 793.00,620.00 793.00,620.00
             793.00,620.00 800.69,604.00 800.69,604.00
             806.48,591.17 817.30,562.39 820.00,549.00
             820.00,549.00 788.00,540.85 788.00,540.85
             788.00,540.85 777.00,538.00 777.00,538.00
             777.00,538.00 783.58,507.00 783.58,507.00
             783.58,507.00 788.17,470.00 788.17,470.00
             788.17,470.00 788.17,452.96 788.17,452.96
             788.17,452.96 788.98,442.00 788.98,442.00
             788.98,442.00 788.09,433.00 788.09,433.00
             788.09,433.00 782.39,385.00 782.39,385.00
             782.39,385.00 777.00,360.00 777.00,360.00
             777.00,360.00 820.00,349.00 820.00,349.00
             817.01,335.75 808.66,312.58 803.14,300.00
             803.14,300.00 793.00,278.00 793.00,278.00 Z
           M 428.00,852.00
           C 412.64,851.95 390.37,848.20 375.00,845.42
             306.41,833.05 239.73,800.44 187.00,755.00
             166.39,737.24 146.77,716.73 130.37,695.00
             130.37,695.00 119.42,680.00 119.42,680.00
             118.12,678.16 115.21,674.22 115.01,672.04
             114.59,667.28 128.90,660.83 133.00,660.00
             142.30,676.56 166.34,704.34 180.00,718.00
             186.06,709.53 194.47,703.00 202.00,695.91
             204.05,693.98 208.43,688.46 211.09,688.30
             214.82,688.07 221.37,695.45 224.00,697.96
             233.59,707.12 244.33,715.26 255.00,723.12
             288.47,747.75 325.38,763.43 365.00,775.00
             365.00,775.00 354.00,819.00 354.00,819.00
             354.00,819.00 378.00,824.00 378.00,824.00
             391.38,826.72 414.57,830.00 428.00,830.00
             428.00,830.00 428.00,852.00 428.00,852.00 Z
           M 770.00,660.00
           C 770.00,660.00 789.00,670.00 789.00,670.00
             776.77,691.76 749.99,721.53 731.96,739.09
             678.72,790.95 609.04,828.86 536.00,843.45
             515.68,847.51 494.77,851.43 474.00,852.00
             474.00,852.00 474.00,830.00 474.00,830.00
             495.69,830.00 528.38,824.75 549.00,818.00
             549.00,818.00 537.00,775.00 537.00,775.00
             546.00,773.61 564.01,766.74 573.00,763.20
             600.18,752.52 626.55,738.94 650.00,721.34
             650.00,721.34 679.00,697.71 679.00,697.71
             683.33,693.92 686.20,690.44 691.00,687.00
             691.00,687.00 700.96,696.03 700.96,696.03
             700.96,696.03 724.00,718.00 724.00,718.00
             724.00,718.00 742.73,696.00 742.73,696.00
             742.73,696.00 770.00,660.00 770.00,660.00 Z" />
</svg>
